<?xml version="1.0" encoding="UTF-8" standalone="no"?>
<!-- Created with Inkscape (http://www.inkscape.org/) -->

<svg
   xmlns:dc="http://purl.org/dc/elements/1.1/"
   xmlns:cc="http://creativecommons.org/ns#"
   xmlns:rdf="http://www.w3.org/1999/02/22-rdf-syntax-ns#"
   xmlns:svg="http://www.w3.org/2000/svg"
   xmlns="http://www.w3.org/2000/svg"
   xmlns:sodipodi="http://sodipodi.sourceforge.net/DTD/sodipodi-0.dtd"
   xmlns:inkscape="http://www.inkscape.org/namespaces/inkscape"
   width="210mm"
   height="297mm"
   viewBox="0 0 744.09448819 1052.3622047"
   id="svg2"
   version="1.1"
   inkscape:version="0.91 r13725"
   sodipodi:docname="openivi-vents.svg">
  <defs
     id="defs4" />
  <sodipodi:namedview
     id="base"
     pagecolor="#ffffff"
     bordercolor="#666666"
     borderopacity="1.0"
     inkscape:pageopacity="0.0"
     inkscape:pageshadow="2"
     inkscape:zoom="3.959798"
     inkscape:cx="152.31011"
     inkscape:cy="61.028983"
     inkscape:document-units="px"
     inkscape:current-layer="layer1"
     showgrid="true"
     inkscape:snap-text-baseline="true"
     inkscape:window-width="1918"
     inkscape:window-height="1059"
     inkscape:window-x="0"
     inkscape:window-y="19"
     inkscape:window-maximized="1">
    <inkscape:grid
       type="xygrid"
       id="grid4144" />
  </sodipodi:namedview>
  <metadata
     id="metadata7">
    <rdf:RDF>
      <cc:Work
         rdf:about="">
        <dc:format>image/svg+xml</dc:format>
        <dc:type
           rdf:resource="http://purl.org/dc/dcmitype/StillImage" />
        <dc:title />
      </cc:Work>
    </rdf:RDF>
  </metadata>
  <g
     inkscape:label="Layer 1"
     inkscape:groupmode="layer"
     id="layer1">
    <path
       style="font-style:normal;font-variant:normal;font-weight:normal;font-stretch:condensed;font-size:45px;line-height:125%;font-family:Impact;-inkscape-font-specification:'Impact Condensed';text-align:start;letter-spacing:0px;word-spacing:0px;writing-mode:lr-tb;text-anchor:start;fill:#000000;fill-opacity:1;stroke:none;stroke-width:1px;stroke-linecap:butt;stroke-linejoin:miter;stroke-opacity:1"
       d="m 35.875148,951.87515 0,15.84687 c 0.719602,0.27938 1.249108,0.7846 1.543079,1.56841 0.494901,1.18041 0.741084,3.92118 0.741084,8.22301 l 0,42.48546 c 0,5.444 -0.228418,8.8878 -0.685249,10.3345 -0.288699,0.9143 -0.8389,1.5061 -1.598914,1.8426 l 0,15.908 c 4.590832,-0.1509 8.685393,-0.957 12.222809,-2.5024 3.921146,-1.7132 7.019993,-4.1726 9.304155,-7.3702 2.32223,-3.1979 3.697804,-6.7181 4.116568,-10.5631 0.456831,-3.883 0.680174,-10.4664 0.680174,-19.7556 l 0,-15.82167 c 0,-9.51728 -0.223343,-16.17681 -0.680174,-19.98369 -0.456832,-3.80709 -1.885701,-7.327 -4.284074,-10.56311 -2.398371,-3.23559 -5.578433,-5.65436 -9.537647,-7.25345 -3.519136,-1.46913 -7.474762,-2.24516 -11.821811,-2.39563 z m -3.314575,0.0156 c -4.447938,0.18192 -8.425136,0.98601 -11.872567,2.49232 -3.921146,1.7129 -7.042836,4.17248 -9.365068,7.37013 -2.284163,3.1979 -3.6546605,6.73574 -4.1114929,10.61897 -0.4187633,3.84508 -0.6294139,10.41048 -0.6294139,19.69938 l 0,15.82164 c 0,9.5176 0.2284165,16.177 0.6852489,19.9841 0.4568326,3.8068 1.8857032,7.3271 4.2840739,10.5628 2.39837,3.2361 5.555591,5.6726 9.476736,7.3094 3.45808,1.3966 7.319313,2.1482 11.532483,2.3249 l 0,-15.9587 c -0.608058,-0.31 -1.055322,-0.7982 -1.309586,-1.4974 -0.418763,-1.2563 -0.629415,-4.5659 -0.629415,-9.9336 l 0,-43.17073 c 0,-4.75872 0.327398,-7.61642 0.974577,-8.56814 0.273038,-0.39424 0.600729,-0.68661 0.964424,-0.92389 l 0,-16.13118 z"
       id="path4180"
       inkscape:connector-curvature="0" />
    <path
       style="font-style:normal;font-variant:normal;font-weight:normal;font-stretch:condensed;font-size:45px;line-height:125%;font-family:Impact;-inkscape-font-specification:'Impact Condensed';text-align:start;letter-spacing:0px;word-spacing:0px;writing-mode:lr-tb;text-anchor:start;fill:#000000;fill-opacity:1;stroke:none;stroke-width:1px;stroke-linecap:butt;stroke-linejoin:miter;stroke-opacity:1"
       d="m 71.223833,953.75829 0,92.44741 24.039539,0 0,-37.2316 0.304561,0 0,-15.86243 c -0.112183,0 -0.18674,0 -0.304561,-0.0156 l 0,-23.52682 c 0.111006,0 0.196256,0.014 0.304561,0.0156 l 0,-15.82684 c -0.04662,0 -0.08521,-0.005 -0.131972,-0.005 l -24.212126,0 z m 27.658669,0.071 0,16.06023 c 1.149288,0.2365 2.015688,0.59956 2.548108,1.11153 0.98981,0.95171 1.48725,3.00765 1.48725,6.16737 l 0,7.5936 c 0,3.42607 -0.43907,5.69233 -1.31467,6.79659 -0.5754,0.73245 -1.4984,1.197 -2.720688,1.42631 l 0,15.9892 2.837438,0 c 5.25357,0 9.4945,-0.7209 12.7304,-2.1675 3.27397,-1.4465 5.5226,-3.52 6.74082,-6.2231 1.21822,-2.70281 1.82733,-7.0071 1.82733,-12.90806 l 0,-8.05036 c 0,-5.7866 -0.3274,-10.05032 -0.97458,-12.79133 -0.6091,-2.77898 -1.80449,-5.13926 -3.59375,-7.08088 -1.75118,-1.94162 -4.39828,-3.4287 -7.93873,-4.45655 -2.84978,-0.83631 -6.76283,-1.31112 -11.628928,-1.46705 z"
       id="path4182"
       inkscape:connector-curvature="0" />
    <path
       inkscape:connector-curvature="0"
       id="path4184"
       style="font-style:normal;font-variant:normal;font-weight:normal;font-stretch:condensed;font-size:45px;line-height:125%;font-family:Impact;-inkscape-font-specification:'Impact Condensed';text-align:start;letter-spacing:0px;word-spacing:0px;writing-mode:lr-tb;text-anchor:start;fill:#000000;fill-opacity:1;stroke:none;stroke-width:1px;stroke-linecap:butt;stroke-linejoin:miter;stroke-opacity:1"
       d="m 129.92682,953.75674 40.08704,0 0,18.50161 -16.04624,0 0,17.53087 15.01837,0 0,17.58818 -15.01837,0 0,20.3288 17.64516,0 0,18.5019 -41.68596,0 0,-92.45136 z" />
    <path
       style="font-style:normal;font-variant:normal;font-weight:normal;font-stretch:condensed;font-size:45px;line-height:125%;font-family:Impact;-inkscape-font-specification:'Impact Condensed';text-align:start;letter-spacing:0px;word-spacing:0px;writing-mode:lr-tb;text-anchor:start;fill:#000000;fill-opacity:1;stroke:none;stroke-width:1px;stroke-linecap:butt;stroke-linejoin:miter;stroke-opacity:1"
       d="m 178.57948,953.75829 0,92.44741 20.10062,0 -0.43337,-37.8307 1.70437,-0.053 8.92145,30.1074 0,-53.19053 -10.19245,-31.48068 z m 33.60764,0 0,92.44741 20.07017,0 0,-92.44741 z"
       id="path4186"
       inkscape:connector-curvature="0"
       sodipodi:nodetypes="cccccccccccccc" />
    <path
       inkscape:connector-curvature="0"
       id="path4188"
       style="font-style:normal;font-variant:normal;font-weight:normal;font-stretch:condensed;font-size:45px;line-height:125%;font-family:Impact;-inkscape-font-specification:'Impact Condensed';text-align:start;letter-spacing:0px;word-spacing:0px;writing-mode:lr-tb;text-anchor:start;fill:#000000;fill-opacity:1;stroke:none;stroke-width:1px;stroke-linecap:butt;stroke-linejoin:miter;stroke-opacity:1"
       d="m 265.89159,953.75674 0,92.45136 -24.04081,0 0,-92.45136 24.04081,0 z" />
    <path
       style="font-style:normal;font-variant:normal;font-weight:normal;font-stretch:condensed;font-size:45px;line-height:125%;font-family:Impact;-inkscape-font-specification:'Impact Condensed';text-align:start;letter-spacing:0px;word-spacing:0px;writing-mode:lr-tb;text-anchor:start;fill:#000000;fill-opacity:1;stroke:none;stroke-width:1px;stroke-linecap:butt;stroke-linejoin:miter;stroke-opacity:1"
       d="m 270.17438,953.75829 13.87758,92.44741 20.24276,0 -2.42631,-28.6536 c -0.0196,0.277 -0.0412,0.5093 -0.0609,0.7871 -1.2563,-17.5882 -3.34755,-39.11257 -6.27892,-64.58091 l -25.35421,0 z m 37.23185,0 -1.65472,17.18685 c -0.78762,7.94187 -1.55459,16.72422 -2.30447,25.97361 l 4.1724,49.28695 12.92327,0 12.21773,-92.44741 -25.35421,0 z"
       id="path4190"
       inkscape:connector-curvature="0" />
    <path
       inkscape:connector-curvature="0"
       id="path4192"
       style="font-style:normal;font-variant:normal;font-weight:normal;font-stretch:condensed;font-size:45px;line-height:125%;font-family:Impact;-inkscape-font-specification:'Impact Condensed';text-align:start;letter-spacing:0px;word-spacing:0px;writing-mode:lr-tb;text-anchor:start;fill:#000000;fill-opacity:1;stroke:none;stroke-width:1px;stroke-linecap:butt;stroke-linejoin:miter;stroke-opacity:1"
       d="m 360.91274,953.75674 0,92.45136 -24.0408,0 0,-92.45136 24.0408,0 z" />
  </g>
</svg>
